<svg xmlns="http://www.w3.org/2000/svg">
<!-- Chevron Right Icon -->
  <symbol id="chevronRight" viewBox="0 0 24 24">
   <path d="M15.75,9.525,11.164,4.939A1.5,1.5,0,0,0,9.043,7.061l4.586,4.585a.5.5,0,0,1,0,.708L9.043,16.939a1.5,1.5,0,0,0,2.121,2.122l4.586-4.586A3.505,3.505,0,0,0,15.75,9.525Z"/>
  </symbol>
  
  <!-- Chevron Down Icon -->
  <symbol id="chevron-down" viewBox="0 0 24 24">
    <path d="M19.061,7.854a1.5,1.5,0,0,0-2.122,0l-4.586,4.585a.5.5,0,0,1-.707,0L7.061,7.854A1.5,1.5,0,0,0,4.939,9.975l4.586,4.586a3.5,3.5,0,0,0,4.95,0l4.586-4.586A1.5,1.5,0,0,0,19.061,7.854Z"/>
  </symbol>

  <!-- Document -->

  <symbol id="document" viewBox="0 0 24 24">
  <path fill-rule="evenodd" clip-rule="evenodd" d="M10.9436 1.25H13.0564C14.8942 1.24998 16.3498 1.24997 17.489 1.40314C18.6614 1.56076 19.6104 1.89288 20.3588 2.64124C21.1071 3.38961 21.4392 4.33856 21.5969 5.51098C21.75 6.65019 21.75 8.10583 21.75 9.94359V14.0564C21.75 15.8942 21.75 17.3498 21.5969 18.489C21.4392 19.6614 21.1071 20.6104 20.3588 21.3588C19.6104 22.1071 18.6614 22.4392 17.489 22.5969C16.3498 22.75 14.8942 22.75 13.0564 22.75H10.9436C9.10583 22.75 7.65019 22.75 6.51098 22.5969C5.33856 22.4392 4.38961 22.1071 3.64124 21.3588C2.89288 20.6104 2.56076 19.6614 2.40314 18.489C2.24997 17.3498 2.24998 15.8942 2.25 14.0564V9.94358C2.24998 8.10582 2.24997 6.65019 2.40314 5.51098C2.56076 4.33856 2.89288 3.38961 3.64124 2.64124C4.38961 1.89288 5.33856 1.56076 6.51098 1.40314C7.65019 1.24997 9.10582 1.24998 10.9436 1.25ZM6.71085 2.88976C5.70476 3.02502 5.12511 3.27869 4.7019 3.7019C4.27869 4.12511 4.02502 4.70476 3.88976 5.71085C3.75159 6.73851 3.75 8.09318 3.75 10V14C3.75 15.9068 3.75159 17.2615 3.88976 18.2892C4.02502 19.2952 4.27869 19.8749 4.7019 20.2981C5.12511 20.7213 5.70476 20.975 6.71085 21.1102C7.73851 21.2484 9.09318 21.25 11 21.25H13C14.9068 21.25 16.2615 21.2484 17.2892 21.1102C18.2952 20.975 18.8749 20.7213 19.2981 20.2981C19.7213 19.8749 19.975 19.2952 20.1102 18.2892C20.2484 17.2615 20.25 15.9068 20.25 14V10C20.25 8.09318 20.2484 6.73851 20.1102 5.71085C19.975 4.70476 19.7213 4.12511 19.2981 3.7019C18.8749 3.27869 18.2952 3.02502 17.2892 2.88976C16.2615 2.75159 14.9068 2.75 13 2.75H11C9.09318 2.75 7.73851 2.75159 6.71085 2.88976ZM12 5.25C12.4142 5.25 12.75 5.58579 12.75 6V7.25L14 7.25C14.4142 7.25 14.75 7.58579 14.75 8C14.75 8.41421 14.4142 8.75 14 8.75L12.75 8.75L12.75 10C12.75 10.4142 12.4142 10.75 12 10.75C11.5858 10.75 11.25 10.4142 11.25 10L11.25 8.75H9.99997C9.58575 8.75 9.24997 8.41421 9.24997 8C9.24997 7.58579 9.58575 7.25 9.99997 7.25H11.25V6C11.25 5.58579 11.5858 5.25 12 5.25ZM7.25 14C7.25 13.5858 7.58579 13.25 8 13.25H16C16.4142 13.25 16.75 13.5858 16.75 14C16.75 14.4142 16.4142 14.75 16 14.75H8C7.58579 14.75 7.25 14.4142 7.25 14ZM8.25 18C8.25 17.5858 8.58579 17.25 9 17.25H15C15.4142 17.25 15.75 17.5858 15.75 18C15.75 18.4142 15.4142 18.75 15 18.75H9C8.58579 18.75 8.25 18.4142 8.25 18Z"/>
  </symbol>

<!-- trash -->
  <symbol id="trash" viewBox="0 0 24 24">  
  <path fill-rule="evenodd" clip-rule="evenodd" d="M9 4.5V6H6V7.5H18V6H15V4.5H9ZM6.75 8.25H8.25V17.6893L8.56066 18H15.4393L15.75 17.6893V8.25H17.25V18.3107L16.0607 19.5H7.93934L6.75 18.3107V8.25Z" />
  </symbol>

<!-- Customer -->
<symbol id="customer" viewBox="0 0 24 24">  
  <path d="M670.5 471.7c-7.1-3.1-14.2-5.9-21.4-8.5 49.8-40.3 81.6-101.8 81.6-170.6 0-121-98.4-219.4-219.4-219.4s-219.4 98.4-219.4 219.4c0 68.9 31.9 130.5 81.7 170.7C219.4 519.6 109 667.8 109 841.3h73.1c0-181.5 147.7-329.1 329.1-329.1 45.3 0 89.1 9 130.2 26.7l29.1-67.2zM511.3 146.3c80.7 0 146.3 65.6 146.3 146.3S592 438.9 511.3 438.9 365 373.2 365 292.6s65.6-146.3 146.3-146.3zM612.5 636.5c0 10.2 5.6 19.5 14.6 24.2l128 67.6c4 2.1 8.4 3.2 12.8 3.2s8.8-1.1 12.8-3.2l128-67.6c9-4.8 14.6-14.1 14.6-24.2s-5.6-19.5-14.6-24.2l-128-67.7c-8-4.2-17.6-4.2-25.6 0l-128 67.7c-9 4.7-14.6 14-14.6 24.2z m155.4-36.6l69.3 36.6-69.3 36.6-69.3-36.6 69.3-36.6z" fill="#0F1F3C" /><path d="M767.9 763.4l-147-77.7-25.6 48.5 172.6 91.2 171.9-90.8-25.6-48.5z" fill="#0F1F3C" /><path d="M767.9 851.4l-147-77.6-25.6 48.4 172.6 91.3 171.3-90.6-25.6-48.5z" fill="#0F1F3C" />
  </symbol>

  <!-- calendar -->
<symbol id="calendar" viewBox="0 0 24 24">  
  <path fill="#fff" d="M7 10H17M7 14H12M7 3V5M17 3V5M6.2 21H17.8C18.9201 21 19.4802 21 19.908 20.782C20.2843 20.5903 20.5903 20.2843 20.782 19.908C21 19.4802 21 18.9201 21 17.8V8.2C21 7.07989 21 6.51984 20.782 6.09202C20.5903 5.71569 20.2843 5.40973 19.908 5.21799C19.4802 5 18.9201 5 17.8 5H6.2C5.0799 5 4.51984 5 4.09202 5.21799C3.71569 5.40973 3.40973 5.71569 3.21799 6.09202C3 6.51984 3 7.07989 3 8.2V17.8C3 18.9201 3 19.4802 3.21799 19.908C3.40973 20.2843 3.71569 20.5903 4.09202 20.782C4.51984 21 5.07989 21 6.2 21Z" stroke="#292D32" stroke-width="2" stroke-linecap="round" stroke-linejoin="round"/>
</symbol>

<!-- Preview -->
<symbol  id="eye" viewBox="0 0 24 24">
<path d="M12.0012 5C7.52354 5 3.73326 7.94288 2.45898 12C3.73324 16.0571 7.52354 19 12.0012 19C16.4788 19 20.2691 16.0571 21.5434 12C20.2691 7.94291 16.4788 5 12.0012 5Z" stroke-width="2" stroke-linecap="round" stroke-linejoin="round"/>
<path d="M15.0007 12C15.0007 13.6569 13.6576 15 12.0007 15C10.3439 15 9.00073 13.6569 9.00073 12C9.00073 10.3431 10.3439 9 12.0007 9C13.6576 9 15.0007 10.3431 15.0007 12Z" stroke="white" stroke-width="2" stroke-linecap="round" stroke-linejoin="round"/>
</symbol>
</svg>